<svg width="859" height="879" viewBox="0 0 859 879" fill="none" xmlns="http://www.w3.org/2000/svg">
<g clip-path="url(#clip0)">
<circle cx="561.492" cy="395.605" r="16.5637" transform="rotate(19.451 561.492 395.605)" stroke="white" stroke-opacity="0.9" stroke-width="2.76061"/>
<circle cx="579.477" cy="440.017" r="16.5637" transform="rotate(19.451 579.477 440.017)" stroke="white" stroke-opacity="0.9" stroke-width="2.76061"/>
<circle cx="538.51" cy="460.682" r="16.5637" transform="rotate(19.451 538.51 460.682)" stroke="white" stroke-opacity="0.9" stroke-width="2.76061"/>
<circle cx="518.304" cy="418.413" r="16.5637" transform="rotate(19.451 518.304 418.413)" stroke="white" stroke-opacity="0.9" stroke-width="2.76061"/>
<circle cx="505.033" cy="551.329" r="40.0288" transform="rotate(19.451 505.033 551.329)" stroke="white" stroke-opacity="0.9" stroke-width="2.76061"/>
<circle cx="451.884" cy="618.926" r="16.5637" transform="rotate(19.451 451.884 618.926)" stroke="white" stroke-opacity="0.9" stroke-width="2.76061"/>
<path d="M514.424 292.616L574.294 313.759C623.892 331.275 649.9 385.682 632.384 435.28L542.294 690.379C524.778 739.977 470.372 765.985 420.773 748.469L360.903 727.325L514.424 292.616Z" stroke="white" stroke-opacity="0.9" stroke-width="2.76061"/>
<path d="M638.757 395.899L640.487 395.806C642.67 395.689 644.343 393.907 644.09 391.736C643.117 383.381 638.754 362.259 619.229 336.216C604.842 318.352 569.143 305.618 557.53 301.836C555.44 301.155 553.242 302.294 552.51 304.367L552.207 305.227" stroke="white" stroke-opacity="0.9" stroke-width="2.76061"/>
<rect x="-161.622" y="113.661" width="603.193" height="350.597" rx="4.14091" transform="rotate(19.451 -161.622 113.661)" stroke="white" stroke-opacity="0.9" stroke-width="2.76061"/>
<rect x="-206.097" y="61.358" width="721.899" height="419.612" rx="17.944" transform="rotate(19.451 -206.097 61.358)" stroke="white" stroke-opacity="0.9" stroke-width="2.76061"/>
<rect x="-218.725" y="34.9404" width="763.308" height="461.022" transform="rotate(19.451 -218.725 34.9404)" stroke="white" stroke-opacity="0.9" stroke-width="2.76061"/>
</g>
<defs>
<clipPath id="clip0">
<rect width="859" height="879" fill="white"/>
</clipPath>
</defs>
</svg>
