<svg width="859" height="1080" viewBox="0 0 859 1080" fill="none" xmlns="http://www.w3.org/2000/svg">
<g clip-path="url(#clip0)">
<g clip-path="url(#clip1)">
<rect x="373.776" y="348.164" width="359.29" height="207.019" rx="18.0017" transform="rotate(-29.1656 373.776 348.164)" stroke="white" stroke-opacity="0.9" stroke-width="4.50042"/>
<path d="M618.818 469.1L659.666 446.303C671.572 439.659 686.256 448.147 686.439 461.78L686.646 477.126C686.735 483.738 683.193 489.866 677.419 493.088L648.336 509.319C642.185 512.752 634.597 512.282 628.917 508.116L616.945 499.336C606.373 491.582 607.37 475.49 618.818 469.1Z" stroke="white" stroke-opacity="0.9" stroke-width="4.50042"/>
<path d="M342.617 661.901L373.516 644.656C383.683 638.981 385.87 625.293 377.976 616.733L359.645 596.856C357.081 594.075 353.706 592.173 349.999 591.419L323.439 586.019C321.298 585.583 319.153 586.749 318.354 588.783L308.382 614.16C306.82 618.134 306.722 622.534 308.105 626.574L316.812 652.011C320.448 662.633 332.813 667.372 342.617 661.901Z" stroke="white" stroke-opacity="0.9" stroke-width="4.50042"/>
<path d="M253.79 502.742L284.689 485.498C294.857 479.823 307.656 485.149 310.797 496.361L318.09 522.398C319.11 526.041 318.957 529.912 317.653 533.463L308.305 558.903C307.551 560.954 305.433 562.167 303.283 561.78L276.449 556.944C272.247 556.186 268.45 553.96 265.738 550.662L248.66 529.896C241.528 521.225 243.987 508.214 253.79 502.742Z" stroke="white" stroke-opacity="0.9" stroke-width="4.50042"/>
<path d="M240.393 634.47L221.984 601.485C216.307 591.312 221.641 578.507 232.861 575.374L260.309 567.708C263.957 566.689 267.834 566.847 271.388 568.159L297.814 577.92C299.859 578.675 301.069 580.787 300.686 582.932L295.701 610.855C294.95 615.065 292.724 618.869 289.423 621.588L267.556 639.594C258.886 646.733 245.867 644.277 240.393 634.47Z" stroke="white" stroke-opacity="0.9" stroke-width="4.50042"/>
<path d="M403.139 543.642L384.73 510.656C379.053 500.483 365.355 498.301 356.797 506.205L335.862 525.541C333.08 528.111 331.179 531.494 330.43 535.208L324.863 562.823C324.432 564.96 325.594 567.098 327.622 567.899L354.003 578.316C357.981 579.887 362.387 579.99 366.434 578.607L393.24 569.45C403.868 565.819 408.613 553.449 403.139 543.642Z" stroke="white" stroke-opacity="0.9" stroke-width="4.50042"/>
<path d="M369.641 400.677L383.935 426.289C388.467 434.409 385.558 444.665 377.438 449.197C369.318 453.729 359.062 450.82 354.53 442.7L340.236 417.088C335.704 408.968 338.613 398.711 346.733 394.18C354.853 389.648 365.11 392.557 369.641 400.677Z" stroke="white" stroke-opacity="0.9" stroke-width="4.50042"/>
<path d="M761.822 181.803L776.116 207.415C780.648 215.535 777.739 225.791 769.619 230.323C761.499 234.855 751.242 231.946 746.71 223.826L732.416 198.214C727.885 190.094 730.794 179.837 738.914 175.305C747.034 170.774 757.29 173.682 761.822 181.803Z" stroke="white" stroke-opacity="0.9" stroke-width="4.50042"/>
<path d="M686.886 181.15L751.789 144.928C756.801 142.131 759.865 136.802 759.761 131.064V131.064C759.665 125.746 762.292 120.748 766.727 117.812L800.15 95.6842C814.396 86.2526 829.569 78.3025 845.433 71.958L861.302 65.6115C877.401 59.1727 895.545 60.3348 910.691 68.7746L955.844 93.9345C974.337 104.239 990.919 117.649 1004.86 133.578L1175.75 328.777C1210.85 368.871 1241.64 412.544 1267.61 459.075V459.075C1273.64 469.894 1276.99 482.006 1277.37 494.389L1277.44 496.861C1278.28 524.303 1271.21 551.407 1257.09 574.951L1248.14 589.874C1236.08 609.975 1214.54 622.469 1191.1 622.951V622.951C1160.86 623.574 1131.04 615.84 1104.91 600.6L1063.81 576.624C1060.65 574.784 1057.66 572.693 1054.84 570.369L967.128 497.95C963.349 494.829 958.642 493.051 953.744 492.893V492.893C946.211 492.649 939.072 496.254 934.795 502.459L917.317 527.817C903.537 547.809 881.287 560.305 857.045 561.665L836.114 562.84C817.745 563.872 799.851 569.067 783.786 578.033L723.881 611.465" stroke="white" stroke-opacity="0.9" stroke-width="4.50042"/>
<path d="M380.003 352.419L315.1 388.641C310.089 391.438 303.944 391.248 299.115 388.147V388.147C294.64 385.274 289.007 384.886 284.18 387.119L247.799 403.948C232.293 411.121 217.56 419.861 203.832 430.032L190.099 440.205C176.167 450.527 167.63 466.58 166.862 483.902L164.57 535.54C163.631 556.69 166.339 577.843 172.574 598.074L248.992 845.994C264.689 896.918 285.694 946.05 311.663 992.581V992.581C317.701 1003.4 326.252 1012.61 336.594 1019.43L338.658 1020.79C361.576 1035.91 388.353 1044.12 415.806 1044.47L433.207 1044.68C456.645 1044.97 478.588 1033.2 491.302 1013.51V1013.51C507.709 988.095 516.785 958.65 517.531 928.412L518.704 880.842C518.794 877.193 518.588 873.543 518.088 869.927L502.502 757.255C501.83 752.4 502.788 747.46 505.225 743.208V743.208C508.973 736.67 515.788 732.486 523.315 732.104L554.074 730.541C578.323 729.309 600.639 716.933 614.525 697.015L626.514 679.817C637.035 664.725 650.851 652.223 666.916 643.257L726.822 609.824" stroke="white" stroke-opacity="0.9" stroke-width="4.50042"/>
<path d="M587.218 592.39C604.783 623.864 593.557 663.583 562.157 681.107C530.757 698.631 491.059 687.333 473.493 655.859C455.927 624.385 467.153 584.666 498.554 567.142C529.954 549.617 569.652 560.916 587.218 592.39Z" stroke="white" stroke-opacity="0.9" stroke-width="4.50042"/>
<path d="M571.53 601.145C584.251 623.938 576.121 652.699 553.384 665.388C530.647 678.077 501.901 669.897 489.18 647.104C476.46 624.311 484.59 595.55 507.326 582.861C530.063 570.172 558.81 578.352 571.53 601.145Z" stroke="white" stroke-opacity="0.9" stroke-width="4.50042"/>
<path d="M709.027 529.563C716.296 542.589 711.649 559.023 698.659 566.273C685.669 573.522 669.243 568.85 661.973 555.824C654.703 542.798 659.351 526.364 672.34 519.115C685.33 511.865 701.757 516.537 709.027 529.563Z" stroke="white" stroke-opacity="0.9" stroke-width="4.50042"/>
<path d="M872.59 260.471C882.283 277.838 876.087 299.75 858.766 309.417C841.444 319.085 819.542 312.853 809.849 295.486C800.157 278.12 806.353 256.207 823.674 246.54C840.996 236.873 862.898 243.104 872.59 260.471Z" stroke="white" stroke-opacity="0.9" stroke-width="4.50042"/>
<path d="M901.745 151.431C911.437 168.798 905.242 190.71 887.92 200.377C870.598 210.044 848.696 203.813 839.004 186.446C829.311 169.079 835.507 147.167 852.829 137.5C870.15 127.833 892.052 134.064 901.745 151.431Z" stroke="white" stroke-opacity="0.9" stroke-width="4.50042"/>
<path d="M612.709 578.163C638.148 623.745 621.892 681.27 576.413 706.651C530.933 732.033 473.44 715.668 448.001 670.086C422.562 624.504 438.818 566.98 484.297 541.598C529.777 516.217 587.27 532.581 612.709 578.163Z" stroke="white" stroke-opacity="0.9" stroke-width="4.50042"/>
<path d="M893.118 421.669C910.684 453.143 899.458 492.861 868.057 510.386C836.657 527.91 796.959 516.612 779.393 485.138C761.828 453.663 773.054 413.945 804.454 396.42C835.854 378.896 875.552 390.194 893.118 421.669Z" stroke="white" stroke-opacity="0.9" stroke-width="4.50042"/>
<path d="M877.432 430.423C890.152 453.216 882.022 481.977 859.285 494.666C836.549 507.355 807.802 499.175 795.082 476.383C782.361 453.59 790.491 424.829 813.228 412.14C835.964 399.451 864.711 407.631 877.432 430.423Z" stroke="white" stroke-opacity="0.9" stroke-width="4.50042"/>
<path d="M918.61 407.442C944.049 453.024 927.793 510.548 882.314 535.929C836.835 561.311 779.341 544.946 753.902 499.364C728.463 453.782 744.72 396.258 790.199 370.876C835.678 345.495 893.171 361.86 918.61 407.442Z" stroke="white" stroke-opacity="0.9" stroke-width="4.50042"/>
</g>
</g>
<defs>
<clipPath id="clip0">
<rect width="859" height="1080" fill="white"/>
</clipPath>
<clipPath id="clip1">
<rect width="1100.35" height="672.813" fill="white" transform="translate(42 514) rotate(-29.1656)"/>
</clipPath>
</defs>
</svg>
