<svg width="458" height="400" viewBox="0 0 458 400" fill="none" xmlns="http://www.w3.org/2000/svg">
<g clip-path="url(#clip0)">
<rect x="117.868" y="131.59" width="127.641" height="73.5458" rx="6.39529" transform="rotate(-29.1656 117.868 131.59)" stroke="white" stroke-opacity="0.9" stroke-width="1.59882"/>
<path d="M204.921 174.554L219.433 166.455C223.662 164.095 228.879 167.11 228.944 171.954L229.017 177.406C229.049 179.754 227.79 181.932 225.739 183.076L215.407 188.842C213.222 190.062 210.526 189.895 208.509 188.415L204.255 185.296C200.499 182.541 200.854 176.824 204.921 174.554Z" stroke="white" stroke-opacity="0.9" stroke-width="1.59882"/>
<path d="M106.798 243.049L117.775 236.923C121.387 234.907 122.164 230.043 119.359 227.002L112.847 219.941C111.936 218.953 110.737 218.277 109.42 218.01L99.9846 216.091C99.2238 215.936 98.4619 216.35 98.1779 217.073L94.6353 226.088C94.0805 227.5 94.0456 229.063 94.5369 230.498L97.6303 239.535C98.9219 243.309 103.315 244.993 106.798 243.049Z" stroke="white" stroke-opacity="0.9" stroke-width="1.59882"/>
<path d="M75.2417 186.506L86.2189 180.38C89.8312 178.364 94.378 180.256 95.4938 184.239L98.0849 193.489C98.4473 194.783 98.393 196.159 97.9295 197.42L94.6087 206.458C94.3409 207.186 93.5884 207.618 92.8244 207.48L83.2914 205.762C81.7985 205.493 80.4499 204.702 79.4863 203.53L73.419 196.153C70.8856 193.073 71.759 188.45 75.2417 186.506Z" stroke="white" stroke-opacity="0.9" stroke-width="1.59882"/>
<path d="M70.4813 233.304L63.9413 221.585C61.9243 217.971 63.8193 213.422 67.8055 212.309L77.5565 209.586C78.8527 209.224 80.23 209.28 81.4925 209.746L90.8808 213.214C91.6071 213.482 92.0369 214.232 91.9008 214.994L90.1301 224.914C89.8631 226.41 89.0724 227.761 87.8996 228.727L80.131 235.124C77.0509 237.66 72.4258 236.788 70.4813 233.304Z" stroke="white" stroke-opacity="0.9" stroke-width="1.59882"/>
<path d="M128.299 201.036L121.759 189.318C119.742 185.704 114.876 184.928 111.835 187.736L104.398 194.606C103.41 195.519 102.734 196.721 102.468 198.04L100.49 207.851C100.337 208.61 100.75 209.369 101.471 209.654L110.843 213.355C112.256 213.913 113.822 213.949 115.259 213.458L124.782 210.205C128.558 208.915 130.244 204.52 128.299 201.036Z" stroke="white" stroke-opacity="0.9" stroke-width="1.59882"/>
<path d="M116.399 150.246L121.477 159.345C123.087 162.23 122.053 165.874 119.168 167.484C116.284 169.094 112.64 168.06 111.03 165.175L105.952 156.076C104.342 153.192 105.375 149.548 108.26 147.938C111.145 146.328 114.789 147.362 116.399 150.246Z" stroke="white" stroke-opacity="0.9" stroke-width="1.59882"/>
<path d="M255.726 72.4888L260.804 81.5878C262.414 84.4726 261.38 88.1163 258.496 89.7262C255.611 91.3362 251.967 90.3028 250.357 87.418L245.279 78.319C243.669 75.4343 244.703 71.7906 247.587 70.1806C250.472 68.5706 254.116 69.6041 255.726 72.4888Z" stroke="white" stroke-opacity="0.9" stroke-width="1.59882"/>
<path d="M229.103 72.2571L252.16 59.3888C253.941 58.3952 255.029 56.502 254.992 54.4635V54.4635C254.958 52.5744 255.892 50.7989 257.467 49.7559L269.341 41.8946C274.402 38.5439 279.792 35.7195 285.428 33.4656L291.066 31.2109C296.785 28.9235 303.231 29.3363 308.612 32.3346L324.653 41.273C331.223 44.9338 337.114 49.6979 342.068 55.3567L402.776 124.703C415.246 138.947 426.184 154.462 435.409 170.993V170.993C437.554 174.837 438.744 179.139 438.877 183.539L438.904 184.417C439.2 194.166 436.69 203.795 431.673 212.159L428.493 217.461C424.21 224.602 416.557 229.04 408.231 229.212V229.212C397.488 229.433 386.892 226.685 377.61 221.271L363.008 212.753C361.888 212.1 360.822 211.357 359.822 210.531L328.662 184.804C327.319 183.695 325.647 183.063 323.907 183.007V183.007C321.231 182.921 318.694 184.201 317.175 186.406L310.966 195.414C306.07 202.517 298.166 206.956 289.554 207.439L282.118 207.857C275.592 208.223 269.235 210.069 263.527 213.254L242.245 225.131" stroke="white" stroke-opacity="0.9" stroke-width="1.59882"/>
<path d="M120.08 133.102L97.0221 145.971C95.2417 146.964 93.0589 146.897 91.3433 145.795V145.795C89.7534 144.774 87.7522 144.637 86.0375 145.43L73.1128 151.409C67.6039 153.957 62.3701 157.062 57.493 160.675L52.6143 164.289C47.6647 167.956 44.6319 173.659 44.3588 179.813L43.5445 198.158C43.211 205.672 44.173 213.187 46.3884 220.374L73.5366 308.45C79.1129 326.541 86.5754 343.996 95.8011 360.527V360.527C97.9461 364.37 100.984 367.642 104.658 370.065L105.391 370.549C113.533 375.919 123.046 378.838 132.799 378.959L138.981 379.036C147.307 379.14 155.103 374.956 159.62 367.961V367.961C165.448 358.933 168.673 348.472 168.938 337.73L169.355 320.83C169.387 319.534 169.313 318.237 169.136 316.953L163.599 276.925C163.36 275.2 163.7 273.445 164.566 271.934V271.934C165.897 269.612 168.319 268.125 170.993 267.989L181.92 267.434C190.535 266.997 198.463 262.6 203.396 255.524L207.655 249.414C211.393 244.052 216.301 239.611 222.009 236.426L243.291 224.548" stroke="white" stroke-opacity="0.9" stroke-width="1.59882"/>
<path d="M193.695 218.354C199.935 229.536 195.947 243.646 184.792 249.872C173.636 256.098 159.533 252.084 153.293 240.902C147.052 229.721 151.04 215.611 162.196 209.385C173.351 203.159 187.454 207.173 193.695 218.354Z" stroke="white" stroke-opacity="0.9" stroke-width="1.59882"/>
<path d="M188.121 221.465C192.64 229.562 189.752 239.78 181.675 244.288C173.597 248.796 163.385 245.89 158.866 237.792C154.346 229.695 157.235 219.477 165.312 214.969C173.39 210.461 183.602 213.367 188.121 221.465Z" stroke="white" stroke-opacity="0.9" stroke-width="1.59882"/>
<path d="M236.968 196.035C239.551 200.662 237.9 206.501 233.285 209.076C228.67 211.651 222.835 209.992 220.252 205.364C217.669 200.736 219.32 194.898 223.935 192.323C228.55 189.747 234.386 191.407 236.968 196.035Z" stroke="white" stroke-opacity="0.9" stroke-width="1.59882"/>
<path d="M295.077 100.437C298.52 106.607 296.319 114.391 290.166 117.825C284.012 121.26 276.231 119.046 272.788 112.876C269.344 106.707 271.545 98.922 277.699 95.4876C283.853 92.0533 291.634 94.267 295.077 100.437Z" stroke="white" stroke-opacity="0.9" stroke-width="1.59882"/>
<path d="M344.538 72.8329C347.981 79.0026 345.78 86.7872 339.627 90.2216C333.473 93.6559 325.692 91.4422 322.249 85.2724C318.805 79.1027 321.006 71.3181 327.16 67.8837C333.314 64.4494 341.095 66.6631 344.538 72.8329Z" stroke="white" stroke-opacity="0.9" stroke-width="1.59882"/>
<path d="M333.484 111.959C336.928 118.129 334.727 125.914 328.573 129.348C322.419 132.782 314.638 130.569 311.195 124.399C307.752 118.229 309.953 110.444 316.106 107.01C322.26 103.576 330.041 105.789 333.484 111.959Z" stroke="white" stroke-opacity="0.9" stroke-width="1.59882"/>
<path d="M305.434 61.6991C308.877 67.8688 306.676 75.6534 300.522 79.0878C294.368 82.5221 286.588 80.3084 283.144 74.1386C279.701 67.9689 281.902 60.1843 288.056 56.7499C294.209 53.3156 301.99 55.5293 305.434 61.6991Z" stroke="white" stroke-opacity="0.9" stroke-width="1.59882"/>
<path d="M202.751 213.3C211.789 229.494 206.014 249.93 189.857 258.947C173.7 267.964 153.275 262.15 144.237 245.957C135.2 229.763 140.975 209.327 157.132 200.31C173.289 191.293 193.714 197.107 202.751 213.3Z" stroke="white" stroke-opacity="0.9" stroke-width="1.59882"/>
<path d="M302.369 157.704C308.61 168.885 304.622 182.996 293.466 189.221C282.311 195.447 268.208 191.433 261.968 180.252C255.727 169.07 259.715 154.96 270.871 148.734C282.026 142.508 296.129 146.522 302.369 157.704Z" stroke="white" stroke-opacity="0.9" stroke-width="1.59882"/>
<path d="M296.796 160.814C301.315 168.911 298.427 179.129 290.349 183.637C282.272 188.145 272.059 185.239 267.54 177.142C263.021 169.044 265.91 158.827 273.987 154.319C282.064 149.811 292.277 152.717 296.796 160.814Z" stroke="white" stroke-opacity="0.9" stroke-width="1.59882"/>
<path d="M311.426 152.65C320.464 168.843 314.689 189.279 298.532 198.296C282.375 207.313 261.949 201.499 252.912 185.306C243.875 169.113 249.65 148.676 265.807 139.659C281.964 130.642 302.389 136.456 311.426 152.65Z" stroke="white" stroke-opacity="0.9" stroke-width="1.59882"/>
</g>
<defs>
<clipPath id="clip0">
<rect width="390.912" height="239.024" fill="white" transform="translate(0 190.506) rotate(-29.1656)"/>
</clipPath>
</defs>
</svg>
