<svg width="263" height="358" viewBox="0 0 263 358" fill="none" xmlns="http://www.w3.org/2000/svg">
<circle cx="223.843" cy="189.025" r="7.34291" transform="rotate(19.451 223.843 189.025)" stroke="white" stroke-opacity="0.9" stroke-width="1.22382"/>
<circle cx="231.816" cy="208.713" r="7.34291" transform="rotate(19.451 231.816 208.713)" stroke="white" stroke-opacity="0.9" stroke-width="1.22382"/>
<circle cx="213.655" cy="217.874" r="7.34291" transform="rotate(19.451 213.655 217.874)" stroke="white" stroke-opacity="0.9" stroke-width="1.22382"/>
<circle cx="204.698" cy="199.136" r="7.34291" transform="rotate(19.451 204.698 199.136)" stroke="white" stroke-opacity="0.9" stroke-width="1.22382"/>
<circle cx="198.815" cy="258.059" r="17.7454" transform="rotate(19.451 198.815 258.059)" stroke="white" stroke-opacity="0.9" stroke-width="1.22382"/>
<circle cx="175.252" cy="288.026" r="7.34291" transform="rotate(19.451 175.252 288.026)" stroke="white" stroke-opacity="0.9" stroke-width="1.22382"/>
<path d="M202.978 143.368L229.519 152.741C251.507 160.506 263.036 184.625 255.271 206.613L215.333 319.702C207.568 341.69 183.449 353.219 161.461 345.454L134.92 336.081L202.978 143.368Z" stroke="white" stroke-opacity="0.9" stroke-width="1.22382"/>
<path d="M258.096 189.155L258.863 189.114C259.831 189.062 260.572 188.272 260.46 187.309C260.029 183.605 258.095 174.242 249.439 162.696C243.061 154.777 227.235 149.132 222.087 147.455C221.16 147.154 220.186 147.658 219.862 148.577L219.727 148.959" stroke="white" stroke-opacity="0.9" stroke-width="1.22382"/>
<rect x="-96.7235" y="64.0344" width="267.404" height="155.425" rx="1.83573" transform="rotate(19.451 -96.7235 64.0344)" stroke="white" stroke-opacity="0.9" stroke-width="1.22382"/>
<rect x="-116.44" y="40.8478" width="320.029" height="186.02" rx="7.95482" transform="rotate(19.451 -116.44 40.8478)" stroke="white" stroke-opacity="0.9" stroke-width="1.22382"/>
<rect x="-122.039" y="29.1365" width="338.386" height="204.378" transform="rotate(19.451 -122.039 29.1365)" stroke="white" stroke-opacity="0.9" stroke-width="1.22382"/>
</svg>
